<?xml version="1.0" encoding="UTF-8" standalone="no"?>
<!DOCTYPE svg PUBLIC "-//W3C//DTD SVG 1.1//EN" "http://www.w3.org/Graphics/SVG/1.1/DTD/svg11.dtd">
<!-- Generated by graphviz version 2.40.1 (20161225.0304)
 -->
<!-- Title: %0 Pages: 1 -->
<svg width="879pt" height="317pt" viewBox="0.00 0.00 878.82 316.80" xmlns="http://www.w3.org/2000/svg" xmlns:xlink="http://www.w3.org/1999/xlink">
<g id="graph0" class="graph" transform="scale(1 1) rotate(0) translate(4 312.8)">
<title>%0</title>
<polygon fill="#ffffff" stroke="transparent" points="-4,4 -4,-312.8 874.8178,-312.8 874.8178,4 -4,4"/>
<!-- OutOfService -->
<g id="node1" class="node">
<title>OutOfService</title>
<path fill="none" stroke="#000000" d="M52.6,-116C52.6,-116 122.342,-116 122.342,-116 128.342,-116 134.342,-122 134.342,-128 134.342,-128 134.342,-140 134.342,-140 134.342,-146 128.342,-152 122.342,-152 122.342,-152 52.6,-152 52.6,-152 46.6,-152 40.6,-146 40.6,-140 40.6,-140 40.6,-128 40.6,-128 40.6,-122 46.6,-116 52.6,-116"/>
<text text-anchor="middle" x="87.471" y="-129.9" font-family="Times,serif" font-size="14.00" fill="#000000">OutOfService</text>
</g>
<!-- Loading -->
<g id="node2" class="node">
<title>Loading</title>
<path fill="none" stroke="#000000" d="M265.2741,-75C265.2741,-75 303.9319,-75 303.9319,-75 309.9319,-75 315.9319,-81 315.9319,-87 315.9319,-87 315.9319,-99 315.9319,-99 315.9319,-105 309.9319,-111 303.9319,-111 303.9319,-111 265.2741,-111 265.2741,-111 259.2741,-111 253.2741,-105 253.2741,-99 253.2741,-99 253.2741,-87 253.2741,-87 253.2741,-81 259.2741,-75 265.2741,-75"/>
<text text-anchor="middle" x="284.603" y="-88.9" font-family="Times,serif" font-size="14.00" fill="#000000">Loading</text>
</g>
<!-- OutOfService&#45;&gt;Loading -->
<g id="edge1" class="edge">
<title>OutOfService-&gt;Loading</title>
<path fill="none" stroke="#000000" d="M102.4081,-115.8991C114.3711,-102.9213 132.4045,-86.494 152.342,-79.2 181.5643,-68.5092 216.6777,-72.9008 243.3788,-79.4568"/>
<polygon fill="#000000" stroke="#000000" points="242.6079,-82.8732 253.1706,-82.0485 244.399,-76.1062 242.6079,-82.8732"/>
<text text-anchor="middle" x="190.429" y="-84.2" font-family="Times,serif" font-size="14.00" fill="#000000">StartLoading</text>
</g>
<!-- ToJob -->
<g id="node3" class="node">
<title>ToJob</title>
<path fill="none" stroke="#000000" d="M461.08,-128C461.08,-128 491.08,-128 491.08,-128 497.08,-128 503.08,-134 503.08,-140 503.08,-140 503.08,-152 503.08,-152 503.08,-158 497.08,-164 491.08,-164 491.08,-164 461.08,-164 461.08,-164 455.08,-164 449.08,-158 449.08,-152 449.08,-152 449.08,-140 449.08,-140 449.08,-134 455.08,-128 461.08,-128"/>
<text text-anchor="middle" x="476.08" y="-141.9" font-family="Times,serif" font-size="14.00" fill="#000000">ToJob</text>
</g>
<!-- OutOfService&#45;&gt;ToJob -->
<g id="edge2" class="edge">
<title>OutOfService-&gt;ToJob</title>
<path fill="none" stroke="#000000" d="M134.3463,-135.4475C212.3042,-137.8548 367.0724,-142.6339 438.4329,-144.8375"/>
<polygon fill="#000000" stroke="#000000" points="438.6384,-148.3454 448.7417,-145.1558 438.8545,-141.3487 438.6384,-148.3454"/>
<text text-anchor="middle" x="284.603" y="-146.2" font-family="Times,serif" font-size="14.00" fill="#000000">DepartToJob</text>
</g>
<!-- AtJob -->
<g id="node4" class="node">
<title>AtJob</title>
<path fill="none" stroke="#000000" d="M638.3928,-116C638.3928,-116 668.3928,-116 668.3928,-116 674.3928,-116 680.3928,-122 680.3928,-128 680.3928,-128 680.3928,-140 680.3928,-140 680.3928,-146 674.3928,-152 668.3928,-152 668.3928,-152 638.3928,-152 638.3928,-152 632.3928,-152 626.3928,-146 626.3928,-140 626.3928,-140 626.3928,-128 626.3928,-128 626.3928,-122 632.3928,-116 638.3928,-116"/>
<text text-anchor="middle" x="653.3928" y="-129.9" font-family="Times,serif" font-size="14.00" fill="#000000">AtJob</text>
</g>
<!-- OutOfService&#45;&gt;AtJob -->
<g id="edge3" class="edge">
<title>OutOfService-&gt;AtJob</title>
<path fill="none" stroke="#000000" d="M112.9067,-152.1495C124.4589,-159.6237 138.5941,-167.7454 152.342,-173 192.1465,-188.2137 204.093,-186.9821 246.516,-191 366.5909,-202.3724 397.2958,-185.1352 517.296,-173 557.82,-168.902 570.006,-176.6176 608.3928,-163 612.6466,-161.491 616.9059,-159.5109 621.0154,-157.2928"/>
<polygon fill="#000000" stroke="#000000" points="622.8883,-160.2515 629.7127,-152.1472 619.3239,-154.2269 622.8883,-160.2515"/>
<text text-anchor="middle" x="378.777" y="-199.2" font-family="Times,serif" font-size="14.00" fill="#000000">ArriveAtJob</text>
</g>
<!-- Returning -->
<g id="node5" class="node">
<title>Returning</title>
<path fill="none" stroke="#000000" d="M810.8248,-97C810.8248,-97 858.8178,-97 858.8178,-97 864.8178,-97 870.8178,-103 870.8178,-109 870.8178,-109 870.8178,-121 870.8178,-121 870.8178,-127 864.8178,-133 858.8178,-133 858.8178,-133 810.8248,-133 810.8248,-133 804.8248,-133 798.8248,-127 798.8248,-121 798.8248,-121 798.8248,-109 798.8248,-109 798.8248,-103 804.8248,-97 810.8248,-97"/>
<text text-anchor="middle" x="834.8213" y="-110.9" font-family="Times,serif" font-size="14.00" fill="#000000">Returning</text>
</g>
<!-- OutOfService&#45;&gt;Returning -->
<g id="edge4" class="edge">
<title>OutOfService-&gt;Returning</title>
<path fill="none" stroke="#000000" d="M98.2581,-152.1246C124.4874,-193.6261 196.0049,-292 284.603,-292 284.603,-292 284.603,-292 653.3928,-292 737.9642,-292 797.8076,-192.2429 822.3868,-142.5105"/>
<polygon fill="#000000" stroke="#000000" points="825.6483,-143.8043 826.8293,-133.2754 819.3402,-140.7697 825.6483,-143.8043"/>
<text text-anchor="middle" x="476.08" y="-296.2" font-family="Times,serif" font-size="14.00" fill="#000000">StartReturning</text>
</g>
<!-- Loading&#45;&gt;OutOfService -->
<g id="edge6" class="edge">
<title>Loading-&gt;OutOfService</title>
<path fill="none" stroke="#000000" d="M253.0171,-98.9924C226.1891,-104.1454 186.6834,-111.8828 152.342,-119.2 149.7311,-119.7563 147.0629,-120.3328 144.3691,-120.9213"/>
<polygon fill="#000000" stroke="#000000" points="143.568,-117.5138 134.5593,-123.09 145.0791,-124.3488 143.568,-117.5138"/>
<text text-anchor="middle" x="190.429" y="-124.2" font-family="Times,serif" font-size="14.00" fill="#000000">LeaveService</text>
</g>
<!-- Loading&#45;&gt;ToJob -->
<g id="edge5" class="edge">
<title>Loading-&gt;ToJob</title>
<path fill="none" stroke="#000000" d="M316.1972,-96.3316C343.3728,-99.7722 383.3701,-106.2185 416.864,-117.2 424.502,-119.7042 432.4115,-123.0055 439.867,-126.4769"/>
<polygon fill="#000000" stroke="#000000" points="438.4889,-129.6985 449.0134,-130.918 441.5465,-123.4016 438.4889,-129.6985"/>
<text text-anchor="middle" x="378.777" y="-122.2" font-family="Times,serif" font-size="14.00" fill="#000000">DepartToJob</text>
</g>
<!-- ToJob&#45;&gt;OutOfService -->
<g id="edge8" class="edge">
<title>ToJob-&gt;OutOfService</title>
<path fill="none" stroke="#000000" d="M448.8012,-152.4004C438.8079,-154.5137 427.3738,-156.6635 416.864,-158 300.2079,-172.8352 267.7436,-174.6097 152.342,-152 149.6914,-151.4807 146.9907,-150.9085 144.2706,-150.2971"/>
<polygon fill="#000000" stroke="#000000" points="144.9304,-146.8563 134.3908,-147.9367 143.3038,-153.6647 144.9304,-146.8563"/>
<text text-anchor="middle" x="284.603" y="-174.2" font-family="Times,serif" font-size="14.00" fill="#000000">LeaveService</text>
</g>
<!-- ToJob&#45;&gt;AtJob -->
<g id="edge7" class="edge">
<title>ToJob-&gt;AtJob</title>
<path fill="none" stroke="#000000" d="M503.3965,-144.1513C533.5506,-142.1106 582.2738,-138.8131 615.9674,-136.5328"/>
<polygon fill="#000000" stroke="#000000" points="616.5954,-139.9984 626.3362,-135.8311 616.1227,-133.0144 616.5954,-139.9984"/>
<text text-anchor="middle" x="571.8444" y="-146.2" font-family="Times,serif" font-size="14.00" fill="#000000">ArriveAtJob</text>
</g>
<!-- AtJob&#45;&gt;OutOfService -->
<g id="edge10" class="edge">
<title>AtJob-&gt;OutOfService</title>
<path fill="none" stroke="#000000" d="M647.6927,-115.6737C641.2103,-98.2622 628.7915,-73.0108 608.3928,-61 505.8108,-.5994 459.6155,-46.9066 340.69,-52.2 256.7306,-55.937 228.4626,-33.3797 152.342,-69 133.873,-77.6425 117.6663,-93.8736 106.0714,-107.9535"/>
<polygon fill="#000000" stroke="#000000" points="103.2335,-105.8999 99.7951,-115.9213 108.7325,-110.2314 103.2335,-105.8999"/>
<text text-anchor="middle" x="378.777" y="-57.2" font-family="Times,serif" font-size="14.00" fill="#000000">LeaveService</text>
</g>
<!-- AtJob&#45;&gt;Returning -->
<g id="edge9" class="edge">
<title>AtJob-&gt;Returning</title>
<path fill="none" stroke="#000000" d="M680.5545,-131.1555C709.0425,-128.1721 754.3352,-123.4289 788.4895,-119.8521"/>
<polygon fill="#000000" stroke="#000000" points="789.1195,-123.3053 798.7006,-118.7827 788.3904,-116.3434 789.1195,-123.3053"/>
<text text-anchor="middle" x="739.6088" y="-133.2" font-family="Times,serif" font-size="14.00" fill="#000000">StartReturning</text>
</g>
<!-- Returning&#45;&gt;OutOfService -->
<g id="edge12" class="edge">
<title>Returning-&gt;OutOfService</title>
<path fill="none" stroke="#000000" d="M819.6738,-96.7779C790.9021,-64.351 724.8081,0 653.3928,0 284.603,0 284.603,0 284.603,0 222.5111,0 202.3508,-8.1961 152.342,-45 130.2738,-61.241 112.5846,-87.188 101.2871,-106.8852"/>
<polygon fill="#000000" stroke="#000000" points="98.1836,-105.2649 96.4084,-115.7099 104.3098,-108.6517 98.1836,-105.2649"/>
<text text-anchor="middle" x="476.08" y="-4.2" font-family="Times,serif" font-size="14.00" fill="#000000">LeaveService</text>
</g>
<!-- Returning&#45;&gt;Loading -->
<g id="edge11" class="edge">
<title>Returning-&gt;Loading</title>
<path fill="none" stroke="#000000" d="M798.6391,-112.6446C767.3512,-110.6668 720.9021,-107.8719 680.3928,-106 563.3255,-100.5904 533.9955,-100.7713 416.864,-97 386.5937,-96.0254 352.4241,-94.9937 326.3993,-94.2223"/>
<polygon fill="#000000" stroke="#000000" points="326.2367,-90.7161 316.1377,-93.9191 326.0299,-97.713 326.2367,-90.7161"/>
<text text-anchor="middle" x="571.8444" y="-107.2" font-family="Times,serif" font-size="14.00" fill="#000000">StartLoading</text>
</g>
<!-- init -->
<g id="node6" class="node">
<title>init</title>
<ellipse fill="#000000" stroke="#000000" cx="1.8" cy="-134" rx="1.8" ry="1.8"/>
</g>
<!-- init&#45;&gt;OutOfService -->
<g id="edge13" class="edge">
<title>init-&gt;OutOfService</title>
<path fill="none" stroke="#000000" d="M3.9177,-134C8.1451,-134 18.2424,-134 30.0137,-134"/>
<polygon fill="#000000" stroke="#000000" points="30.2032,-137.5001 40.2032,-134 30.2032,-130.5001 30.2032,-137.5001"/>
</g>
</g>
</svg>